<svg width="30" height="28" viewBox="0 0 30 28" fill="none" xmlns="http://www.w3.org/2000/svg">
<g opacity="0.7">
<path d="M9.41993 0.000227923C10.3649 0.0284628 11.2799 0.190565 12.1664 0.486771H12.2549C12.3149 0.514771 12.3599 0.545717 12.3899 0.573717C12.7214 0.678347 13.0349 0.796239 13.3349 0.958342L13.9049 1.20886C14.1299 1.32676 14.3999 1.54633 14.5499 1.63623C14.6999 1.72317 14.8649 1.81306 14.9999 1.91475C16.6663 0.66361 18.6898 -0.0142734 20.7748 0.000227923C21.7213 0.000227923 22.6663 0.131619 23.5648 0.427825C29.1012 2.19622 31.0962 8.16454 29.4297 13.3813C28.4847 16.0471 26.9397 18.4802 24.9163 20.4681C22.0198 23.2239 18.8413 25.6701 15.4199 27.7775L15.0449 28L14.6549 27.7627C11.2214 25.6701 8.02494 23.2239 5.10147 20.4534C3.09149 18.4654 1.54501 16.0471 0.585019 13.3813C-1.10996 8.16454 0.885016 2.19622 6.48146 0.396878C6.91645 0.249512 7.36495 0.146356 7.81494 0.0888828H7.99494C8.41644 0.0284628 8.83493 0.000227923 9.25493 0.000227923H9.41993ZM22.7848 4.65723C22.1698 4.44944 21.4948 4.77512 21.2698 5.39406C21.0598 6.01299 21.3898 6.69088 22.0198 6.91045C22.9813 7.26413 23.6248 8.19401 23.6248 9.2241V9.26978C23.5963 9.60725 23.6998 9.93293 23.9098 10.1835C24.1198 10.434 24.4348 10.5799 24.7648 10.6108C25.3798 10.5946 25.9048 10.1098 25.9498 9.48936V9.31399C25.9948 7.24939 24.7213 5.37932 22.7848 4.65723Z" fill="black"/>
</g>
</svg>
