<svg width="28" height="30" viewBox="0 0 28 30" fill="none" xmlns="http://www.w3.org/2000/svg">
<g opacity="0.7">
<path d="M15.057 0C16.1714 0 17.1805 0.63 17.7377 1.56C18.0088 2.01 18.1895 2.565 18.1444 3.15C18.1142 3.6 18.2498 4.05 18.4907 4.47C19.2588 5.745 20.9607 6.225 22.286 5.505C23.777 4.635 25.6595 5.16 26.5179 6.645L27.527 8.415C28.4005 9.9 27.9186 11.805 26.4125 12.66C25.1324 13.425 24.6806 15.12 25.4487 16.41C25.6896 16.815 25.9607 17.16 26.3824 17.37C26.9095 17.655 27.3162 18.105 27.6023 18.555C28.1595 19.485 28.1144 20.625 27.5722 21.63L26.5179 23.43C25.9607 24.39 24.9215 24.99 23.8523 24.99C23.3251 24.99 22.7378 24.84 22.2558 24.54C21.8643 24.285 21.4125 24.195 20.9305 24.195C19.4395 24.195 18.1895 25.44 18.1444 26.925C18.1444 28.65 16.7588 30 15.0268 30H12.9786C11.2316 30 9.84606 28.65 9.84606 26.925C9.81594 25.44 8.56592 24.195 7.07494 24.195C6.57795 24.195 6.12613 24.285 5.74962 24.54C5.26769 24.84 4.66527 24.99 4.15322 24.99C3.06887 24.99 2.0297 24.39 1.47246 23.43L0.433292 21.63C-0.123943 20.655 -0.154064 19.485 0.403172 18.555C0.644138 18.105 1.09595 17.655 1.60801 17.37C2.0297 17.16 2.30079 16.815 2.55681 16.41C3.30983 15.12 2.85802 13.425 1.57788 12.66C0.0869026 11.805 -0.395031 9.9 0.463413 8.415L1.47246 6.645C2.34597 5.16 4.21346 4.635 5.7195 5.505C7.02976 6.225 8.73159 5.745 9.49967 4.47C9.74063 4.05 9.87618 3.6 9.84606 3.15C9.81594 2.565 9.9816 2.01 10.2677 1.56C10.825 0.63 11.834 0.03 12.9334 0H15.057ZM14.0178 10.77C11.6533 10.77 9.74063 12.66 9.74063 15.015C9.74063 17.37 11.6533 19.245 14.0178 19.245C16.3823 19.245 18.2498 17.37 18.2498 15.015C18.2498 12.66 16.3823 10.77 14.0178 10.77Z" fill="black"/>
</g>
</svg>
